<svg width="80" height="80" viewBox="0 0 80 80" fill="none" xmlns="http://www.w3.org/2000/svg">
<path d="M17.2937 50.2703C20.4964 50.1196 23.6201 50.8068 26.4346 52.3586C26.5425 52.4161 26.6505 52.4735 26.7617 52.5328C28.81 53.6373 30.6265 55.1311 32.1183 56.9378C32.502 56.8129 32.8786 56.6753 33.254 56.5268C36.9743 55.0715 40.8065 54.7327 44.6654 55.8475C44.7373 55.8682 44.8092 55.8889 44.8833 55.9102C45.9196 56.2128 46.901 56.5931 47.8826 57.0468C47.9242 56.9518 47.9242 56.9518 47.9666 56.8549C49.5412 53.9076 53.6876 51.9419 56.6981 50.9795C61.5063 49.5383 66.4602 50.3136 70.8177 52.6972C71.5475 53.1074 72.2179 53.5753 72.8695 54.103C72.9582 54.1747 72.9582 54.1747 73.0486 54.2478C76.7863 57.3039 79.2723 61.6586 79.8816 66.517C79.9863 67.5597 79.9879 68.6062 79.9943 69.6533C79.9956 69.7537 79.9969 69.8541 79.9982 69.9576C80.015 71.4865 79.9356 72.7625 78.875 73.9463C78.04 74.7764 77.1008 75.0505 75.9573 75.0497C75.8806 75.0498 75.804 75.0499 75.725 75.05C75.4688 75.0501 75.2126 75.0496 74.9564 75.049C74.7725 75.0489 74.5886 75.0489 74.4046 75.049C73.9057 75.049 73.4068 75.0484 72.9079 75.0476C72.3863 75.047 71.8648 75.0469 71.3432 75.0468C70.3558 75.0464 69.3683 75.0455 68.3808 75.0444C67.2566 75.0432 66.1323 75.0426 65.008 75.0421C62.6955 75.0409 60.3829 75.039 58.0704 75.0366C58.0725 75.2278 58.0725 75.2278 58.0746 75.4229C58.0758 75.5917 58.0769 75.7605 58.0779 75.9293C58.079 76.0131 58.08 76.0969 58.081 76.1833C58.086 77.2402 57.7751 78.0363 57.1052 78.8526C56.3742 79.5589 55.4492 79.9553 54.4384 79.9575C54.3328 79.958 54.2273 79.9585 54.1185 79.959C54.0029 79.959 53.8872 79.9589 53.768 79.9589C53.6449 79.9593 53.5218 79.9597 53.3949 79.9601C53.0532 79.9611 52.7114 79.9616 52.3697 79.9619C52.0011 79.9624 51.6325 79.9634 51.2639 79.9643C50.3737 79.9665 49.4835 79.9676 48.5933 79.9686C48.1739 79.969 47.7545 79.9696 47.3351 79.9702C45.9406 79.9721 44.5462 79.9736 43.1517 79.9744C42.7899 79.9746 42.4281 79.9748 42.0663 79.9751C41.9315 79.9751 41.9315 79.9751 41.7939 79.9752C40.3376 79.9761 38.8814 79.9789 37.4252 79.9824C35.9295 79.986 34.4339 79.988 32.9382 79.9883C32.0987 79.9886 31.2592 79.9895 30.4196 79.9923C29.7046 79.9947 28.9896 79.9956 28.2745 79.9945C27.9099 79.994 27.5454 79.9942 27.1808 79.9963C26.7848 79.9983 26.3889 79.9975 25.9929 79.9961C25.8215 79.9978 25.8215 79.9979 25.6467 79.9997C24.4936 79.9896 23.6517 79.6194 22.8173 78.8138C22.0766 77.9363 21.8038 77.0107 21.8166 75.8816C21.817 75.8003 21.8175 75.7191 21.818 75.6354C21.8193 75.4358 21.8212 75.2362 21.8233 75.0366C21.7272 75.0371 21.6311 75.0376 21.5321 75.0381C19.1905 75.0502 16.8489 75.0592 14.5072 75.0648C13.3748 75.0676 12.2424 75.0715 11.11 75.0777C10.1226 75.0831 9.13528 75.0867 8.14788 75.0879C7.6254 75.0886 7.10296 75.0902 6.5805 75.0942C6.08792 75.0979 5.5954 75.0991 5.10281 75.0982C4.9228 75.0984 4.7428 75.0995 4.56281 75.1016C3.36501 75.1149 2.29728 74.9966 1.30019 74.2461C0.377436 73.2633 0.00298914 72.2658 0.00702074 70.9233C0.00645861 70.8116 0.00589647 70.7 0.0053173 70.5849C0.00463067 70.3487 0.00476974 70.1125 0.00568548 69.8762C0.00658573 69.5233 0.00353114 69.1706 0.000108786 68.8177C-0.0168437 63.6961 1.9482 59.2046 5.41552 55.5204C5.68995 55.2502 5.97741 55.0025 6.27344 54.7572C6.37892 54.6677 6.4844 54.5782 6.59307 54.4859C9.65275 51.9327 13.3458 50.4931 17.2937 50.2703Z" fill="#050505"/>
<path d="M49.8526 61.0129C53.2168 63.8678 55.3499 67.7531 55.8179 72.202C55.8635 72.8628 55.8689 73.5235 55.8657 74.1856C55.8648 74.476 55.8679 74.7662 55.8713 75.0566C55.8714 75.2438 55.8714 75.4309 55.8711 75.6181C55.8723 75.7036 55.8735 75.7892 55.8747 75.8773C55.8676 76.4451 55.7592 76.7684 55.3889 77.2173C55.076 77.4997 54.8856 77.5851 54.4682 77.5816C54.3717 77.5815 54.2751 77.5815 54.1756 77.5815C54.0722 77.5798 53.9689 77.5781 53.8624 77.5764C53.7559 77.5759 53.6494 77.5754 53.5396 77.575C53.1998 77.5731 52.86 77.569 52.5202 77.5649C52.2897 77.5632 52.0591 77.5617 51.8286 77.5604C51.2638 77.5568 50.6989 77.5513 50.1341 77.5444C50.1335 77.3807 50.1335 77.3807 50.1329 77.2136C50.129 76.1837 50.1228 75.1538 50.1144 74.1239C50.1102 73.5945 50.1067 73.0651 50.1051 72.5356C50.1034 72.0245 50.0997 71.5134 50.0946 71.0023C50.093 70.8074 50.0922 70.6126 50.0921 70.4178C50.0919 70.1445 50.0889 69.8713 50.0854 69.598C50.086 69.5178 50.0865 69.4376 50.0871 69.3549C50.0761 68.8025 49.9405 68.4845 49.5979 68.0589C49.1699 67.8413 48.6609 67.9148 48.2105 68.0317C47.9791 68.1431 47.9791 68.1431 47.9233 68.3401C47.8644 68.7176 47.8629 69.0931 47.8601 69.4743C47.859 69.5629 47.8579 69.6516 47.8568 69.743C47.8534 70.0294 47.8508 70.3159 47.8482 70.6024C47.8462 70.7794 47.8442 70.9565 47.8421 71.1336C47.8348 71.7896 47.8283 72.4455 47.8218 73.1015C47.7985 75.3008 47.7985 75.3008 47.7748 77.5444C42.608 77.5444 37.4412 77.5444 32.1178 77.5444C32.0843 73.047 32.0843 73.047 32.0762 71.6274C32.0723 71.2071 32.0723 71.2071 32.0679 70.7869C32.0662 70.5998 32.0651 70.4127 32.0645 70.2257C32.0634 69.9422 32.0604 69.6587 32.0569 69.3753C32.0571 69.292 32.0572 69.2088 32.0574 69.1231C32.0514 68.7794 32.0309 68.5328 31.8669 68.2288C31.5394 67.9163 31.1694 67.9255 30.7379 67.8928C30.3638 67.9862 30.2118 68.1946 29.973 68.495C29.9196 68.8137 29.8987 69.0694 29.9023 69.3876C29.9006 69.5201 29.9006 69.5201 29.8989 69.6553C29.8958 69.9462 29.8965 70.2369 29.8972 70.5278C29.8958 70.7299 29.8941 70.9321 29.8923 71.1342C29.888 71.6653 29.8869 72.1963 29.8865 72.7274C29.8855 73.2697 29.8815 73.812 29.8777 74.3543C29.8708 75.4177 29.8672 76.481 29.8658 77.5444C29.173 77.5555 28.4804 77.5631 27.7876 77.5684C27.552 77.5706 27.3164 77.5736 27.0808 77.5773C26.7419 77.5826 26.4031 77.5851 26.0642 77.587C25.9065 77.5904 25.9065 77.5904 25.7456 77.5938C25.2863 77.594 25.0098 77.5903 24.6073 77.351C24.2923 76.9884 24.1563 76.7 24.1492 76.2156C24.1475 76.1261 24.1458 76.0366 24.1441 75.9444C24.1435 75.848 24.1429 75.7515 24.1422 75.6522C24.141 75.5512 24.1399 75.4502 24.1386 75.3462C24.1357 75.0182 24.135 74.6902 24.1351 74.3622C24.135 74.2509 24.1349 74.1396 24.1348 74.025C24.1373 72.3086 24.2205 70.6929 24.7182 69.0402C24.7429 68.9575 24.7675 68.8748 24.793 68.7895C24.9522 68.2768 25.1427 67.7849 25.3617 67.2957C25.3942 67.2229 25.4267 67.15 25.4602 67.0749C25.9157 66.0717 26.4401 65.1404 27.0775 64.2429C27.1354 64.1608 27.1934 64.0788 27.253 63.9942C29.4137 61.0582 32.4077 59.0235 35.8712 58.0283C35.9861 57.9936 35.9861 57.9936 36.1034 57.9583C40.7501 56.6076 46.1436 57.9746 49.8526 61.0129Z" fill="#FEFEFE"/>
<path d="M18.1307 52.6577C18.2072 52.6575 18.2836 52.6574 18.3624 52.6572C19.4787 52.6577 20.5265 52.7142 21.6093 53.012C21.7517 53.0436 21.7517 53.0436 21.8971 53.0759C24.9416 53.8014 27.4781 55.5875 29.6523 57.8093C29.7164 57.87 29.7806 57.9307 29.8467 57.9933C29.974 58.1364 29.974 58.1364 29.974 58.3544C29.8139 58.484 29.647 58.605 29.478 58.7224C27.5337 60.1307 26.0396 61.791 24.7192 63.8059C24.6566 63.8995 24.594 63.9931 24.5295 64.0895C23.4006 65.879 22.7791 67.9205 22.3399 69.9796C22.3232 70.0576 22.3066 70.1355 22.2895 70.2158C22.1271 71.021 22.0387 71.8163 21.931 72.6372C18.109 72.6372 14.2869 72.6372 10.3491 72.6372C10.3089 68.1943 10.3089 68.1943 10.2978 66.7919C10.2935 66.3767 10.2935 66.3767 10.289 65.9616C10.2871 65.7768 10.2856 65.592 10.2844 65.4072C10.2826 65.1271 10.2795 64.8471 10.276 64.567C10.2757 64.4438 10.2757 64.4438 10.2753 64.318C10.269 63.9147 10.2559 63.5988 10.0274 63.2607C9.65877 62.9831 9.29271 63.003 8.84772 63.0427C8.55484 63.175 8.37442 63.2772 8.19175 63.546C8.0569 63.916 8.06396 64.2766 8.06284 64.6661C8.06123 64.7954 8.06123 64.7954 8.05958 64.9273C8.05627 65.2116 8.05444 65.496 8.05263 65.7803C8.05062 65.9777 8.04853 66.1751 8.04634 66.3724C8.04083 66.8915 8.03658 67.4106 8.0326 67.9297C8.0283 68.4595 8.02282 68.9894 8.01744 69.5192C8.00706 70.5586 7.99801 71.5979 7.98979 72.6372C7.31038 72.6427 6.63098 72.6466 5.95155 72.6492C5.72042 72.6503 5.48929 72.6518 5.25816 72.6537C4.92594 72.6563 4.59375 72.6575 4.26153 72.6585C4.15818 72.6596 4.05484 72.6608 3.94836 72.6619C3.85178 72.6619 3.75519 72.6619 3.65568 72.662C3.57091 72.6624 3.48613 72.6629 3.39878 72.6634C3.12885 72.6333 2.96375 72.5672 2.73503 72.4192C2.33078 71.8463 2.24282 71.4225 2.25287 70.7279C2.25257 70.6405 2.25227 70.5531 2.25195 70.463C2.25187 70.1814 2.25523 69.9 2.25915 69.6185C2.25992 69.5225 2.26069 69.4265 2.26148 69.3276C2.27309 67.9402 2.3039 66.5774 2.62779 65.2232C2.64739 65.138 2.66698 65.0528 2.68717 64.965C3.35202 62.1781 4.74162 59.6462 6.70291 57.5912C6.77756 57.5073 6.85221 57.4234 6.92912 57.337C9.83694 54.1819 13.9524 52.6624 18.1307 52.6577Z" fill="#FEFEFE"/>
<path d="M71.9682 56.3776C72.3201 56.6952 72.6514 57.0278 72.9765 57.3733C73.0606 57.4565 73.1446 57.5397 73.2312 57.6254C75.1863 59.6605 76.4767 62.0244 77.1589 64.7873C77.1917 64.911 77.2244 65.0346 77.2582 65.1621C77.5117 66.1393 77.6053 67.072 77.6134 68.0794C77.6143 68.1831 77.6151 68.2868 77.616 68.3937C77.6175 68.6116 77.6187 68.8294 77.6195 69.0473C77.6208 69.2696 77.623 69.4918 77.6261 69.7141C77.6307 70.0369 77.6324 70.3596 77.6335 70.6825C77.6354 70.7813 77.6373 70.8801 77.6392 70.982C77.6372 71.5856 77.5693 71.9493 77.1589 72.4193C76.8425 72.6177 76.6074 72.6642 76.2383 72.6621C76.1417 72.6621 76.0451 72.6621 75.9456 72.6621C75.8422 72.6609 75.7389 72.6598 75.6324 72.6587C75.5259 72.6583 75.4194 72.658 75.3097 72.6577C74.9698 72.6565 74.63 72.6538 74.2902 72.651C74.0597 72.6499 73.8292 72.6489 73.5986 72.648C73.0338 72.6456 72.469 72.642 71.9041 72.6374C71.9033 72.5263 71.9024 72.4153 71.9015 72.3009C71.8932 71.2549 71.8838 70.2089 71.8733 69.1629C71.8679 68.6252 71.863 68.0874 71.8589 67.5496C71.8549 67.0307 71.85 66.5118 71.8443 65.993C71.8423 65.7949 71.8407 65.5969 71.8394 65.3988C71.8376 65.1216 71.8345 64.8444 71.8311 64.5672C71.8309 64.4852 71.8306 64.4031 71.8304 64.3186C71.824 63.915 71.8106 63.5995 71.5824 63.2609C71.2611 63.0096 70.9058 62.9915 70.5067 62.9998C70.1468 63.0731 69.9782 63.3048 69.7593 63.588C69.5948 63.9225 69.6329 64.2742 69.6301 64.6415C69.629 64.729 69.6279 64.8166 69.6268 64.9068C69.6234 65.1909 69.6208 65.475 69.6182 65.7592C69.6162 65.9343 69.6142 66.1094 69.6121 66.2846C69.6048 66.9348 69.5983 67.5851 69.5918 68.2353C69.5763 69.688 69.5608 71.1407 69.5449 72.6374C65.7228 72.6374 61.9008 72.6374 57.9629 72.6374C57.8568 71.6659 57.8568 71.6659 57.7484 70.6748C57.6783 70.2711 57.6063 69.8798 57.5139 69.4823C57.4907 69.3822 57.4676 69.2821 57.4437 69.1789C56.7085 66.1255 55.214 63.3957 53.1371 61.0803C53.0857 61.0229 53.0343 60.9655 52.9813 60.9064C52.1117 59.9501 51.0741 58.9413 49.9199 58.3546C50.0918 57.9234 50.3842 57.6269 50.7041 57.3052C50.7609 57.2479 50.8176 57.1907 50.876 57.1318C56.6032 51.4699 65.8649 51.1474 71.9682 56.3776Z" fill="#FEFEFE"/>
<path d="M65.3638 27.6074C65.4842 27.6597 65.6046 27.7119 65.7287 27.7658C66.4837 28.1181 67.0953 28.5862 67.7231 29.1338C67.8337 29.2192 67.9443 29.3047 68.0582 29.3927C69.6814 30.8995 70.7398 33.1607 70.8454 35.3899C70.8524 35.677 70.8563 35.9641 70.8586 36.2513C70.8595 36.3573 70.8604 36.4632 70.8613 36.5724C70.8627 36.796 70.8639 37.0195 70.8647 37.2431C70.866 37.4685 70.8681 37.6939 70.8713 37.9192C70.891 39.3156 70.8295 40.5551 70.4041 41.8902C70.3636 42.019 70.323 42.1478 70.2812 42.2806C69.584 44.3954 67.8549 46.2645 65.9201 47.2666C63.7503 48.3475 61.2767 48.5716 58.9659 47.8369C56.5891 47.0091 54.8006 45.3706 53.6479 43.1235C53.6139 43.0597 53.5799 42.9958 53.5448 42.93C52.7643 41.3414 52.7514 39.6924 52.7667 37.9562C52.7698 37.5698 52.7689 37.1837 52.7675 36.7973C52.77 33.958 53.3408 31.6415 55.3503 29.5495C57.9464 26.9472 61.994 26.0333 65.3638 27.6074Z" fill="#FDFDFD"/>
<path d="M18.1502 26.8987C18.2563 26.899 18.2563 26.899 18.3645 26.8993C19.5117 26.9062 20.4551 27.0135 21.5015 27.4984C21.5671 27.5276 21.6328 27.5567 21.7004 27.5868C22.5383 27.9622 23.2754 28.4148 23.968 29.0248C24.047 29.0894 24.1259 29.1541 24.2072 29.2207C25.1523 30.0211 25.8239 30.983 26.3608 32.098C26.4112 32.1996 26.4112 32.1996 26.4626 32.3033C27.1823 33.883 27.2545 35.527 27.2411 37.2389C27.2388 37.5903 27.2411 37.9415 27.2439 38.2929C27.2477 41.2099 26.4439 43.5919 24.397 45.7062C22.7228 47.4118 20.4971 48.2179 18.1637 48.2547C15.7836 48.2475 13.5821 47.3826 11.8499 45.7062C10.1659 43.9797 9.11583 41.6793 9.12239 39.2381C9.12183 39.1133 9.12127 38.9885 9.12069 38.8598C9.12 38.5971 9.12014 38.3344 9.12106 38.0718C9.12197 37.6751 9.11888 37.2786 9.11548 36.8819C9.11026 35.173 9.18188 33.5799 10 32.0435C10.0369 31.9718 10.0739 31.9 10.1119 31.826C11.2842 29.6044 13.1833 27.959 15.5551 27.1918C16.423 26.9441 17.2517 26.8941 18.1502 26.8987Z" fill="#FDFDFD"/>
<path d="M39.6435 0.00661594C41.9185 -0.0863684 44.3278 0.805782 45.9996 2.36777C46.2021 2.56435 46.3992 2.76483 46.5961 2.96743C46.7033 3.07474 46.7033 3.07474 46.8127 3.18421C48.3551 4.83735 48.9897 7.10689 48.9876 9.33455C48.9881 9.44765 48.9885 9.56076 48.989 9.6773C48.9896 9.91459 48.9897 10.1519 48.9892 10.3892C48.9889 10.7478 48.9914 11.1063 48.9941 11.4649C49.0029 14.422 48.2388 16.8526 46.1671 18.9947C44.2613 20.7466 41.8016 21.546 39.2594 21.4453C37.3059 21.31 35.38 20.4489 33.9418 19.1037C33.8529 19.0233 33.764 18.9429 33.6724 18.8601C32.0468 17.3111 31.0345 15.1165 30.9267 12.8484C30.9197 12.5622 30.9158 12.2762 30.9135 11.99C30.9126 11.8843 30.9117 11.7786 30.9109 11.6697C30.9094 11.4466 30.9082 11.2235 30.9074 11.0003C30.9061 10.7757 30.904 10.5511 30.9008 10.3265C30.8762 8.58503 30.931 6.87309 31.7835 5.31155C31.8209 5.23971 31.8583 5.16788 31.8969 5.09387C33.0708 2.87335 34.8823 1.19059 37.2704 0.421437C38.0583 0.188702 38.8291 0.0662904 39.6435 0.00661594Z" fill="#FDFDFD"/>
<path d="M39.4641 31.735C41.9993 31.6585 44.3518 32.5561 46.2228 34.2942C47.9399 35.9768 48.9298 38.1421 49.005 40.5707C49.0126 41.0478 49.0131 41.5245 49.0096 42.0016C49.0073 42.3674 49.0095 42.7329 49.0123 43.0987C49.0148 44.8687 48.9165 46.6178 48.0421 48.1949C47.9963 48.2804 47.9505 48.3658 47.9032 48.4538C47.4353 49.289 46.8472 49.9548 46.1654 50.614C46.0826 50.6976 45.9998 50.7813 45.9145 50.8674C44.9104 51.8365 43.7234 52.3856 42.412 52.7946C42.3044 52.8296 42.1969 52.8646 42.0861 52.9006C39.9903 53.4925 37.7777 53.1518 35.8703 52.1404C35.787 52.0978 35.7036 52.0552 35.6177 52.0114C33.3387 50.795 31.9064 48.7023 31.1518 46.2529C30.9092 45.0962 30.9007 43.9338 30.9034 42.7567C30.9038 42.4589 30.9013 42.1612 30.8985 41.8634C30.888 38.9034 31.6362 36.4023 33.7071 34.2571C35.2496 32.7385 37.3268 31.8317 39.4641 31.735ZM35.1197 36.2222C35.0033 36.3386 35.0033 36.3386 34.8847 36.4573C33.3603 38.0806 33.2385 39.981 33.2429 42.1056C33.243 42.4618 33.2385 42.8178 33.2337 43.1741C33.2232 45.0368 33.4467 46.5779 34.5835 48.1063C34.6693 48.2234 34.6693 48.2234 34.7569 48.3427C35.7459 49.5864 37.3642 50.5817 38.9455 50.7544C39.2393 50.7667 39.5307 50.7685 39.8248 50.7639C39.9802 50.7623 39.9802 50.7623 40.1387 50.7606C42.0985 50.7173 43.6807 49.9089 45.0461 48.4948C45.4357 48.039 45.7225 47.5645 45.9911 47.0297C46.0429 46.9278 46.0429 46.9278 46.0957 46.8238C46.7221 45.5023 46.7586 44.1758 46.7553 42.7364C46.7552 42.4117 46.7597 42.0873 46.7644 41.7627C46.7781 39.5212 46.2361 37.6113 44.6556 35.9748C43.1905 34.5827 41.3699 34.0769 39.4155 34.1166C37.6996 34.1949 36.3136 35.0104 35.1197 36.2222Z" fill="#040404"/>
<path d="M65.3638 27.6074C65.4842 27.6597 65.6046 27.7119 65.7287 27.7658C66.4837 28.1181 67.0953 28.5862 67.7231 29.1338C67.8337 29.2192 67.9443 29.3047 68.0582 29.3927C69.6814 30.8995 70.7398 33.1607 70.8454 35.3899C70.8524 35.677 70.8563 35.9641 70.8586 36.2513C70.8595 36.3573 70.8604 36.4632 70.8613 36.5724C70.8627 36.796 70.8639 37.0195 70.8647 37.2431C70.866 37.4685 70.8681 37.6939 70.8713 37.9192C70.891 39.3156 70.8295 40.5551 70.4041 41.8902C70.3636 42.019 70.323 42.1478 70.2812 42.2806C69.584 44.3954 67.8549 46.2645 65.9201 47.2666C63.7503 48.3475 61.2767 48.5716 58.9659 47.8369C56.5891 47.0091 54.8006 45.3706 53.6479 43.1235C53.6139 43.0597 53.5799 42.9958 53.5448 42.93C52.7643 41.3414 52.7514 39.6924 52.7667 37.9562C52.7698 37.5698 52.7689 37.1837 52.7675 36.7973C52.77 33.958 53.3408 31.6415 55.3503 29.5495C57.9464 26.9472 61.994 26.0333 65.3638 27.6074ZM56.6439 31.5869C55.5372 32.9153 55.0571 34.3713 55.0432 36.101C55.0424 36.2051 55.0415 36.3092 55.0406 36.4164C55.0391 36.6366 55.038 36.8568 55.0371 37.0771C55.0359 37.2994 55.0337 37.5217 55.0305 37.744C54.998 40.0177 55.2628 42.016 56.8826 43.7313C56.9565 43.8073 57.0303 43.8834 57.1063 43.9617C57.1926 44.0607 57.2789 44.1596 57.3677 44.2615C58.9701 45.692 60.7607 45.9121 62.8059 45.836C63.3951 45.7959 63.875 45.648 64.3987 45.3791C64.5726 45.2958 64.5726 45.2958 64.7501 45.2109C66.6007 44.2691 67.6885 42.7497 68.3666 40.7999C68.4497 40.4372 68.4884 40.0986 68.4928 39.7266C68.4942 39.6247 68.4955 39.5227 68.4969 39.4176C68.4977 39.3083 68.4985 39.1991 68.4993 39.0865C68.5006 38.9152 68.5006 38.9152 68.502 38.7405C68.5035 38.4986 68.5046 38.2568 68.5054 38.0149C68.5067 37.77 68.5089 37.525 68.512 37.28C68.5421 34.9632 68.3065 33.0975 66.684 31.3377C65.8944 30.5169 65.0131 29.9914 63.9697 29.5699C63.8913 29.5349 63.8129 29.4999 63.7322 29.4639C61.2148 28.4968 58.3684 29.6829 56.6439 31.5869Z" fill="#040404"/>
<path d="M18.1502 26.8987C18.2563 26.899 18.2563 26.899 18.3645 26.8993C19.5117 26.9062 20.4551 27.0135 21.5015 27.4984C21.5671 27.5276 21.6328 27.5567 21.7004 27.5868C22.5383 27.9622 23.2754 28.4148 23.968 29.0248C24.047 29.0894 24.1259 29.1541 24.2072 29.2207C25.1523 30.0211 25.8239 30.983 26.3608 32.098C26.4112 32.1996 26.4112 32.1996 26.4626 32.3033C27.1823 33.883 27.2545 35.527 27.2411 37.2389C27.2388 37.5903 27.2411 37.9415 27.2439 38.2929C27.2477 41.2099 26.4439 43.5919 24.397 45.7062C22.7228 47.4118 20.4971 48.2179 18.1637 48.2547C15.7836 48.2475 13.5821 47.3826 11.8499 45.7062C10.1659 43.9797 9.11583 41.6793 9.12239 39.2381C9.12183 39.1133 9.12127 38.9885 9.12069 38.8598C9.12 38.5971 9.12014 38.3344 9.12106 38.0718C9.12197 37.6751 9.11888 37.2786 9.11548 36.8819C9.11026 35.173 9.18188 33.5799 10 32.0435C10.0369 31.9718 10.0739 31.9 10.1119 31.826C11.2842 29.6044 13.1833 27.959 15.5551 27.1918C16.423 26.9441 17.2517 26.8941 18.1502 26.8987ZM12.8146 31.7952C11.605 33.4712 11.3661 35.184 11.379 37.2068C11.3807 37.5284 11.379 37.8498 11.3769 38.1713C11.3752 39.5892 11.4815 40.8421 12.1314 42.1219C12.1871 42.2327 12.1871 42.2327 12.2439 42.3457C12.5937 43.0132 13.02 43.5549 13.5657 44.0708C13.6484 44.1489 13.7311 44.227 13.8162 44.3076C14.4855 44.8933 15.2148 45.266 16.0323 45.5972C16.1265 45.6383 16.2208 45.6795 16.3179 45.722C16.8517 45.8611 17.3734 45.8523 17.9224 45.8493C18.0958 45.8484 18.0958 45.8484 18.2727 45.8474C20.068 45.8195 21.5782 45.2284 22.8956 43.9617C24.2774 42.5037 24.8551 40.91 24.8657 38.9042C24.8667 38.7887 24.8677 38.6731 24.8687 38.554C24.8702 38.3107 24.8712 38.0675 24.8716 37.8242C24.8728 37.4569 24.8781 37.0898 24.8835 36.7226C24.9002 34.4805 24.4817 32.8616 22.9291 31.1781C21.404 29.7034 19.5793 29.1667 17.5139 29.2058C15.6569 29.2969 13.9849 30.3642 12.8146 31.7952Z" fill="#040404"/>
<path d="M39.6435 0.00661594C41.9185 -0.0863684 44.3278 0.805782 45.9996 2.36777C46.2021 2.56435 46.3992 2.76483 46.5961 2.96743C46.7033 3.07474 46.7033 3.07474 46.8127 3.18421C48.3551 4.83735 48.9897 7.10689 48.9876 9.33455C48.9881 9.44765 48.9885 9.56076 48.989 9.6773C48.9896 9.91459 48.9897 10.1519 48.9892 10.3892C48.9889 10.7478 48.9914 11.1063 48.9941 11.4649C49.0029 14.422 48.2388 16.8526 46.1671 18.9947C44.2613 20.7466 41.8016 21.546 39.2594 21.4453C37.3059 21.31 35.38 20.4489 33.9418 19.1037C33.8529 19.0233 33.764 18.9429 33.6724 18.8601C32.0468 17.3111 31.0345 15.1165 30.9267 12.8484C30.9197 12.5622 30.9158 12.2762 30.9135 11.99C30.9126 11.8843 30.9117 11.7786 30.9109 11.6697C30.9094 11.4466 30.9082 11.2235 30.9074 11.0003C30.9061 10.7757 30.904 10.5511 30.9008 10.3265C30.8762 8.58503 30.931 6.87309 31.7835 5.31155C31.8209 5.23971 31.8583 5.16788 31.8969 5.09387C33.0708 2.87335 34.8823 1.19059 37.2704 0.421437C38.0583 0.188702 38.8291 0.0662904 39.6435 0.00661594ZM35.0142 4.60286C34.925 4.68761 34.925 4.68761 34.834 4.77407C33.7384 5.92415 33.2656 7.56216 33.2623 9.11478C33.2616 9.23376 33.2609 9.35274 33.2601 9.47533C33.259 9.72659 33.2585 9.97787 33.2586 10.2291C33.2581 10.6096 33.2542 10.9899 33.2501 11.3703C33.2373 13.1544 33.2373 13.1544 33.7273 14.8516C33.7689 14.9512 33.8106 15.0508 33.8535 15.1535C34.5888 16.8393 35.9654 17.9349 37.5682 18.7034C39.0742 19.2824 41.0097 19.2216 42.4941 18.6169C42.6092 18.5617 42.7242 18.5064 42.8427 18.4495C42.9555 18.3954 43.0683 18.3413 43.1845 18.2856C45.0121 17.302 45.9885 15.7031 46.5961 13.7613C46.7112 13.2088 46.7206 12.6734 46.7213 12.1114C46.7217 12.0162 46.722 11.921 46.7224 11.8229C46.723 11.6219 46.7232 11.4208 46.7232 11.2198C46.7234 10.9162 46.7254 10.6126 46.7274 10.309C46.7317 8.98308 46.7179 7.69403 46.1738 6.46317C46.1417 6.39015 46.1096 6.31714 46.0765 6.24192C45.2177 4.40506 43.6785 3.3278 41.8507 2.61309C39.2588 1.89442 36.889 2.7366 35.0142 4.60286Z" fill="#040404"/>
<path d="M45.5214 24.3357C45.5903 24.3579 45.6592 24.3802 45.7301 24.4032C47.844 25.0959 49.9667 26.2028 51.5268 27.8246C51.5622 27.8606 51.5976 27.8966 51.634 27.9336C51.6853 28.4462 51.7123 28.7703 51.3861 29.1806C51.0503 29.5061 50.8805 29.5579 50.4247 29.6065C49.943 29.5613 49.6862 29.3761 49.3217 29.0784C49.1899 28.9772 49.0576 28.8766 48.925 28.7765C48.8583 28.7261 48.7916 28.6757 48.7229 28.6237C47.6779 27.8618 46.4942 27.3296 45.3069 26.8433C45.2053 26.8007 45.1037 26.7582 44.999 26.7143C42.4324 25.741 39.1604 25.5901 36.5132 26.2982C36.4052 26.3218 36.2973 26.3454 36.186 26.3697C34.1454 26.8314 32.2727 27.7908 30.5865 29.0299C30.0378 29.4267 29.7003 29.6681 29.0064 29.5691C28.688 29.3735 28.4247 29.1494 28.2557 28.8059C28.2143 28.2478 28.2538 27.9488 28.5774 27.4975C28.7961 27.3097 29.0066 27.1437 29.241 26.9796C29.307 26.9328 29.3731 26.8859 29.4411 26.8376C34.1397 23.5653 40.0723 22.5027 45.5214 24.3357Z" fill="#050505"/>
<path d="M5.41383 55.5205C5.48461 55.5565 5.55539 55.5925 5.62831 55.6295C5.55754 55.7735 5.48676 55.9174 5.41383 56.0657C5.34306 56.0657 5.27228 56.0657 5.19935 56.0657C5.19935 56.1376 5.19935 56.2096 5.19935 56.2837C5.12858 56.2837 5.0578 56.2837 4.98487 56.2837C4.94948 56.3916 4.9141 56.4996 4.87763 56.6108C4.70355 56.7619 4.52511 56.9081 4.34143 57.0469C4.27065 57.0109 4.19988 56.975 4.12695 56.9379C4.18391 56.8812 4.24086 56.8246 4.29954 56.7662C4.69645 56.3679 5.07834 55.9753 5.41383 55.5205Z" fill="#1E1E1E"/>
<path d="M69.759 43.3076C69.8733 43.6561 69.8742 43.9244 69.8663 44.2889C69.6893 44.2529 69.5124 44.2169 69.3301 44.1798C69.4507 43.8558 69.5685 43.5982 69.759 43.3076Z" fill="#EFEFEF"/>
<path d="M49.9199 61.0801C50.1758 61.1429 50.4204 61.2133 50.6706 61.2981C50.6706 61.3701 50.6706 61.4421 50.6706 61.5162C50.7414 61.5162 50.8122 61.5162 50.8851 61.5162C50.8497 61.6241 50.8143 61.7321 50.7778 61.8433C50.6346 61.7369 50.4916 61.6301 50.3489 61.523C50.2693 61.4636 50.1896 61.4041 50.1076 61.3429C50.0457 61.2921 49.9837 61.2414 49.9199 61.1891C49.9199 61.1531 49.9199 61.1171 49.9199 61.0801Z" fill="#0F0F0F"/>
<path d="M3.70026 57.4805C3.77104 57.5884 3.84182 57.6963 3.91474 57.8076C3.79704 58.1339 3.73492 58.2269 3.41876 58.38C3.33471 58.4069 3.25066 58.4339 3.16406 58.4617C3.29802 58.0846 3.45096 57.7915 3.70026 57.4805Z" fill="#1D1D1D"/>
<path d="M10.5632 54.5391C10.634 54.575 10.7047 54.611 10.7777 54.6481C10.5297 54.9207 10.5297 54.9207 10.2415 55.1932C10.1353 55.1932 10.0291 55.1932 9.91974 55.1932C9.88435 55.1213 9.84896 55.0493 9.8125 54.9752C10.378 54.6238 10.378 54.6238 10.5632 54.5391Z" fill="#E3E3E3"/>
</svg>
