<svg width="18" height="18" viewBox="0 0 18 18" fill="none" xmlns="http://www.w3.org/2000/svg">
<g clip-path="url(#clip0_12627_5797)">
<path d="M8.99431 -0.0106923C9.02227 -0.010494 9.05023 -0.0102957 9.07904 -0.0100915C9.57701 0.000181137 9.92421 0.216127 10.2823 0.550846C10.371 0.632199 10.4625 0.707472 10.5566 0.782521C10.735 0.926644 10.9015 1.08078 11.0684 1.23787C11.1901 1.35188 11.3139 1.46048 11.4443 1.56475C11.6445 1.72507 11.83 1.89934 12.0171 2.07465C12.1813 2.22854 12.3512 2.37515 12.5226 2.52097C12.7632 2.72596 12.9996 2.93423 13.2317 3.1487C13.3906 3.29496 13.5537 3.436 13.7182 3.57593C13.9408 3.76554 14.1608 3.95692 14.3753 4.15574C14.4724 4.24577 14.571 4.33331 14.672 4.419C15.0147 4.719 15.2692 5.08069 15.3005 5.54822C15.3031 5.66709 15.3036 5.78578 15.3033 5.90468C15.3034 5.95025 15.3036 5.99582 15.3038 6.04278C15.3042 6.16873 15.3042 6.29467 15.3041 6.42062C15.3041 6.55667 15.3045 6.69273 15.3048 6.82878C15.3054 7.09514 15.3056 7.36151 15.3056 7.62787C15.3056 7.84449 15.3058 8.0611 15.306 8.27772C15.3066 8.8924 15.307 9.50708 15.3069 10.1218C15.3069 10.1549 15.3069 10.188 15.3069 10.2221C15.3069 10.2553 15.3069 10.2884 15.3069 10.3226C15.3069 10.8597 15.3075 11.3968 15.3085 11.9339C15.3095 12.4859 15.31 13.0379 15.31 13.5899C15.3099 13.8996 15.3101 14.2093 15.3109 14.519C15.3115 14.7828 15.3117 15.0465 15.3112 15.3102C15.311 15.4446 15.311 15.5791 15.3116 15.7135C15.3122 15.8596 15.3118 16.0056 15.3113 16.1517C15.3116 16.1937 15.312 16.2357 15.3124 16.2789C15.3084 16.7649 15.1612 17.1866 14.837 17.5521C14.5691 17.8116 14.1987 18.0042 13.8209 18.005C13.7861 18.0052 13.7513 18.0053 13.7154 18.0055C13.6582 18.0055 13.6582 18.0055 13.5997 18.0055C13.5388 18.0057 13.5388 18.0057 13.4766 18.0059C13.3639 18.0062 13.2511 18.0063 13.1383 18.0064C13.0167 18.0066 12.8951 18.0069 12.7734 18.0072C12.4797 18.0079 12.1859 18.0083 11.8922 18.0086C11.7537 18.0087 11.6153 18.0089 11.4769 18.0091C11.0167 18.0097 10.5564 18.0102 10.0962 18.0105C9.97676 18.0105 9.85735 18.0106 9.73794 18.0107C9.70826 18.0107 9.67858 18.0107 9.648 18.0107C9.16745 18.011 8.6869 18.0119 8.20635 18.013C7.71274 18.0142 7.21912 18.0148 6.72551 18.015C6.44846 18.015 6.17142 18.0153 5.89437 18.0162C5.65837 18.017 5.42238 18.0173 5.18639 18.0169C5.06608 18.0168 4.94578 18.0168 4.82547 18.0175C4.69474 18.0182 4.56404 18.0179 4.43332 18.0174C4.39569 18.0178 4.35807 18.0182 4.3193 18.0186C3.90168 18.0151 3.50587 17.8598 3.19339 17.5797C2.80594 17.1731 2.69713 16.719 2.69853 16.1754C2.69837 16.1299 2.69821 16.0845 2.69805 16.0377C2.69762 15.9122 2.69763 15.7866 2.69771 15.6611C2.69772 15.5254 2.69734 15.3898 2.697 15.2542C2.69642 14.9887 2.69623 14.7232 2.69619 14.4576C2.69615 14.2417 2.69601 14.0258 2.69579 13.8099C2.69517 13.1971 2.69484 12.5844 2.6949 11.9717C2.6949 11.9387 2.6949 11.9056 2.6949 11.8716C2.69491 11.8386 2.69491 11.8055 2.69491 11.7715C2.69494 11.2361 2.69427 10.7007 2.69328 10.1653C2.69227 9.61502 2.69178 9.06475 2.69184 8.51448C2.69187 8.20576 2.69167 7.89704 2.69092 7.58832C2.69027 7.32542 2.69012 7.06253 2.6906 6.79964C2.69083 6.66565 2.69084 6.53167 2.69022 6.39768C2.68956 6.25205 2.69001 6.10645 2.69055 5.96083C2.69019 5.91899 2.68983 5.87715 2.68945 5.83404C2.69396 5.28298 2.88309 4.88867 3.26164 4.4981C3.40915 4.35503 3.56479 4.22603 3.72527 4.09792C3.88001 3.96883 4.02565 3.83071 4.17226 3.69253C4.30447 3.56794 4.43784 3.44556 4.57561 3.32709C4.65515 3.25799 4.73282 3.18697 4.81072 3.11602C4.92944 3.00866 5.05047 2.90616 5.17546 2.8062C5.38871 2.63385 5.58658 2.44638 5.78603 2.2584C5.89594 2.1549 6.00801 2.05444 6.12248 1.956C6.20203 1.8869 6.2797 1.81588 6.35759 1.74492C6.47631 1.63757 6.59735 1.53507 6.72234 1.43511C6.93556 1.26278 7.1334 1.0753 7.3329 0.88744C7.46411 0.763928 7.59728 0.64354 7.73528 0.527638C7.77613 0.492561 7.77613 0.492561 7.81781 0.456776C8.17112 0.161899 8.52852 -0.0141462 8.99431 -0.0106923ZM8.122 1.4417C7.9927 1.55754 7.86104 1.67061 7.72882 1.7831C7.48833 1.98791 7.25209 2.19608 7.02007 2.41042C6.86161 2.55629 6.69904 2.69702 6.53488 2.83641C6.32554 3.01447 6.11888 3.19414 5.91814 3.38189C5.78411 3.50725 5.64839 3.6274 5.50505 3.74224C5.30437 3.90331 5.11814 4.078 4.9306 4.25393C4.82371 4.35412 4.71453 4.45125 4.60362 4.54699C4.49125 4.64474 4.38118 4.74505 4.27074 4.84499C4.19314 4.91443 4.11437 4.98212 4.03508 5.04961C3.81785 5.24002 3.63748 5.41223 3.61543 5.71564C3.6127 5.83079 3.61229 5.94576 3.61259 6.06094C3.61243 6.10526 3.61228 6.14958 3.61211 6.19524C3.61168 6.31801 3.61169 6.44078 3.61177 6.56355C3.61179 6.69606 3.6114 6.82856 3.61107 6.96107C3.61048 7.22058 3.61029 7.48009 3.61025 7.7396C3.61022 7.95057 3.61007 8.16154 3.60985 8.37251C3.60923 8.97081 3.60891 9.56911 3.60896 10.1674C3.60896 10.1997 3.60896 10.2319 3.60897 10.2651C3.60897 10.2974 3.60897 10.3297 3.60897 10.363C3.609 10.8862 3.60833 11.4094 3.60734 11.9326C3.60633 12.47 3.60584 13.0074 3.6059 13.5448C3.60593 13.8464 3.60574 14.1481 3.60498 14.4497C3.60434 14.7066 3.60419 14.9634 3.60466 15.2202C3.60489 15.3512 3.6049 15.4822 3.60429 15.6131C3.60363 15.7553 3.60407 15.8974 3.60461 16.0395C3.60425 16.0807 3.60389 16.1219 3.60352 16.1644C3.60576 16.4309 3.63603 16.6691 3.82414 16.871C3.98232 17.0172 4.13736 17.0949 4.35578 17.0953C4.38951 17.0955 4.42324 17.0957 4.45799 17.096C4.49477 17.0959 4.53155 17.0957 4.56944 17.0956C4.60873 17.0958 4.64802 17.096 4.68849 17.0961C4.82041 17.0966 4.95233 17.0965 5.08425 17.0964C5.17872 17.0967 5.2732 17.0969 5.36767 17.0972C5.59782 17.0977 5.82798 17.0979 6.05813 17.098C6.24523 17.098 6.43234 17.0982 6.61944 17.0984C7.15004 17.099 7.68063 17.0993 8.21122 17.0993C8.23982 17.0993 8.26842 17.0993 8.29789 17.0993C8.32652 17.0993 8.35516 17.0993 8.38466 17.0993C8.84869 17.0992 9.31271 17.0999 9.77673 17.1009C10.2533 17.1019 10.7299 17.1024 11.2065 17.1023C11.474 17.1023 11.7415 17.1025 12.009 17.1032C12.2368 17.1039 12.4645 17.104 12.6923 17.1036C12.8085 17.1033 12.9246 17.1034 13.0408 17.1039C13.1669 17.1045 13.2929 17.1042 13.419 17.1036C13.4555 17.104 13.4921 17.1043 13.5297 17.1047C13.7844 17.1023 13.9856 17.0573 14.1709 16.8741C14.1869 16.8505 14.2029 16.827 14.2194 16.8028C14.236 16.7792 14.2527 16.7556 14.2698 16.7312C14.3415 16.6105 14.3491 16.5116 14.3495 16.3743C14.3496 16.3358 14.3498 16.2973 14.35 16.2577C14.35 16.2152 14.35 16.1728 14.3501 16.129C14.3502 16.084 14.3504 16.0391 14.3505 15.9927C14.3509 15.8677 14.3511 15.7426 14.3513 15.6175C14.3515 15.4827 14.3519 15.3479 14.3523 15.2131C14.3532 14.8874 14.3537 14.5617 14.3541 14.236C14.3543 14.144 14.3544 14.0521 14.3545 13.9601C14.3554 13.389 14.3562 12.8179 14.3566 12.2469C14.3567 12.1146 14.3569 11.9823 14.357 11.85C14.357 11.8007 14.357 11.8007 14.357 11.7503C14.3575 11.2177 14.3587 10.685 14.3601 10.1523C14.3616 9.60548 14.3624 9.05868 14.3626 8.51187C14.3627 8.20482 14.3632 7.89778 14.3643 7.59073C14.3653 7.32924 14.3657 7.06776 14.3653 6.80627C14.3651 6.67287 14.3652 6.53948 14.3661 6.40608C14.367 6.26139 14.3666 6.11672 14.366 5.97202C14.3665 5.92996 14.367 5.8879 14.3675 5.84456C14.3644 5.52221 14.2791 5.34483 14.0539 5.11979C14.0127 5.08214 13.9712 5.04483 13.9294 5.00786C13.9075 4.98807 13.8857 4.96828 13.8631 4.94788C13.8013 4.89206 13.7391 4.8367 13.6767 4.78154C13.636 4.74545 13.636 4.74545 13.5944 4.70862C13.5508 4.67032 13.507 4.63218 13.463 4.59423C13.381 4.52288 13.3003 4.4501 13.2197 4.37725C13.1149 4.28268 13.0097 4.1887 12.9032 4.096C12.7968 4.00329 12.6916 3.90931 12.5868 3.81475C12.3997 3.64603 12.2111 3.47933 12.019 3.31624C11.7876 3.11955 11.5604 2.91976 11.3381 2.71282C11.2167 2.59976 11.0936 2.48917 10.9681 2.38062C10.8858 2.30878 10.8047 2.23564 10.7236 2.1624C10.5963 2.04755 10.468 1.93406 10.3386 1.82155C10.2574 1.75004 10.1774 1.67717 10.0973 1.6043C9.91301 1.43789 9.7218 1.28079 9.52825 1.12529C9.49838 1.1005 9.46852 1.07572 9.43775 1.05017C8.9219 0.653945 8.4983 1.09041 8.122 1.4417Z" fill="#1A2A40" stroke="#1A2A40" stroke-width="0.5"/>
<path d="M9.14066 7.66453C9.22861 7.73049 9.2679 7.7784 9.31644 7.87547C9.31896 7.97101 9.31971 8.06561 9.31864 8.16111C9.31848 8.18762 9.31832 8.21413 9.31816 8.24145C9.31774 8.30695 9.31711 8.37246 9.31644 8.43797C9.38279 8.43361 9.38279 8.43361 9.45047 8.42918C9.87808 8.42918 10.4216 8.53305 10.7754 8.78074C10.881 8.93911 10.9063 9.0831 10.8809 9.27073C10.8152 9.41582 10.751 9.47714 10.6172 9.56297C10.4049 9.61571 10.2494 9.57746 10.0459 9.51682C9.80304 9.4466 9.56723 9.39763 9.31644 9.35203C9.31644 9.8625 9.31644 10.373 9.31644 10.8989C9.43245 10.9221 9.54847 10.9453 9.668 10.9692C9.76376 10.9993 9.85591 11.03 9.94925 11.0659C9.97338 11.0751 9.99752 11.0844 10.0224 11.0939C10.4561 11.2652 10.8087 11.5027 11.0052 11.9386C11.1751 12.3658 11.1453 12.7963 10.9688 13.2192C10.7365 13.6775 10.3082 13.9451 9.83129 14.1017C9.65507 14.1485 9.4993 14.173 9.31644 14.1684C9.31807 14.207 9.3197 14.2456 9.32138 14.2853C9.3227 14.3364 9.32398 14.3876 9.32523 14.4387C9.32641 14.4641 9.32758 14.4894 9.3288 14.5155C9.33131 14.6529 9.32612 14.7158 9.24997 14.8349C9.13985 14.9415 9.13985 14.9415 9.03313 14.9426C9.00553 14.9402 8.97793 14.9378 8.9495 14.9353C8.92199 14.9333 8.89448 14.9314 8.86614 14.9294C8.7891 14.9067 8.7891 14.9067 8.72675 14.8538C8.66243 14.723 8.67239 14.6021 8.67703 14.4585C8.67775 14.4167 8.67775 14.4167 8.67848 14.374C8.67972 14.3055 8.68161 14.237 8.68363 14.1684C8.65666 14.1679 8.6297 14.1674 8.60192 14.1669C8.08755 14.1448 7.31266 14.0575 6.91922 13.6894C6.81108 13.5477 6.80582 13.4287 6.82035 13.2544C6.87261 13.1007 6.93641 13.0234 7.07523 12.938C7.32168 12.8722 7.49431 12.9387 7.72782 13.0215C8.07322 13.1403 8.07322 13.1403 8.68363 13.2192C8.67203 12.7436 8.66042 12.2679 8.64847 11.7778C8.38678 11.6943 8.38678 11.6943 8.12478 11.6117C7.62117 11.4474 7.21061 11.1851 6.96427 10.7061C6.82285 10.3808 6.83387 9.8904 6.94559 9.55857C7.1742 9.04681 7.54564 8.75502 8.05081 8.54343C8.26473 8.47304 8.45799 8.43232 8.68363 8.43797C8.682 8.39392 8.68036 8.34987 8.67868 8.30448C8.67736 8.24644 8.67608 8.18839 8.67484 8.13035C8.67366 8.10134 8.67248 8.07234 8.67127 8.04246C8.66781 7.82837 8.66781 7.82837 8.7446 7.71561C8.87427 7.63245 8.99189 7.63663 9.14066 7.66453ZM8.02884 9.65305C7.9002 9.78508 7.86403 9.88439 7.85965 10.0683C7.86374 10.2149 7.87442 10.3213 7.98448 10.4298C8.20009 10.5833 8.42267 10.6837 8.68363 10.7231C8.6845 10.5781 8.68514 10.433 8.68556 10.288C8.68573 10.2387 8.68597 10.1895 8.68628 10.1403C8.68865 9.7624 8.68865 9.7624 8.64847 9.38718C8.44298 9.38718 8.18718 9.52622 8.02884 9.65305ZM9.31644 11.9536C9.31644 12.3712 9.31644 12.7889 9.31644 13.2192C9.63585 13.1553 9.82591 13.1123 10.0349 12.8764C10.123 12.6933 10.1548 12.5353 10.0899 12.34C9.99559 12.199 9.89178 12.1506 9.74051 12.081C9.71534 12.0686 9.69016 12.0561 9.66423 12.0433C9.53373 11.9806 9.466 11.9536 9.31644 11.9536Z" fill="#1A2A40" stroke="#1A2A40" stroke-width="0.5"/>
<path d="M10.1499 3.06011C10.5822 3.42921 10.8087 3.87916 10.8718 4.44C10.8966 4.93294 10.7118 5.4046 10.3947 5.77236C10.0054 6.18667 9.55355 6.38996 8.9841 6.40957C8.43678 6.39635 7.96751 6.1568 7.59323 5.76577C7.32355 5.46705 7.1788 5.10912 7.1362 4.71108C7.13325 4.6838 7.1303 4.65652 7.12727 4.62841C7.10197 4.14038 7.29011 3.66078 7.59433 3.28753C8.26403 2.56687 9.36203 2.47007 10.1499 3.06011ZM8.24032 4.00453C8.09229 4.22535 8.05033 4.44758 8.08541 4.71108C8.1573 4.99734 8.29682 5.19312 8.54231 5.35502C8.7662 5.47292 8.99771 5.48366 9.24557 5.44937C9.54542 5.35628 9.72595 5.1804 9.87179 4.90884C9.96572 4.6221 9.96732 4.39264 9.84323 4.11343C9.71371 3.8921 9.56143 3.75826 9.32907 3.64761C8.88866 3.54974 8.52465 3.64577 8.24032 4.00453Z" fill="#1A2A40" stroke="#1A2A40" stroke-width="0.5"/>
</g>
<defs>
<clipPath id="clip0_12627_5797">
<rect width="18" height="18" fill="white"/>
</clipPath>
</defs>
</svg>
