<svg width="80" height="80" viewBox="0 0 80 80" fill="none" xmlns="http://www.w3.org/2000/svg">
<path d="M34.167 38.6919C37.4056 40.0284 41.3697 40.2183 44.6876 39.063C44.8959 38.993 45.1043 38.923 45.3126 38.853C46.267 38.5306 46.267 38.5306 47.1876 38.1255C47.9935 38.0843 48.7309 38.183 49.5118 38.3696C49.6835 38.4106 49.6835 38.4106 49.8587 38.4524C55.0304 39.7619 59.7751 43.2735 62.5384 47.8358C64.9296 51.9497 65.702 56.1515 65.6874 60.8623C65.6877 61.2239 65.6881 61.5854 65.6887 61.947C65.6894 62.6986 65.6884 63.4503 65.6862 64.2019C65.6835 65.1644 65.6851 66.1269 65.6879 67.0894C65.6896 67.8333 65.689 68.5772 65.6878 69.3212C65.6875 69.6763 65.6879 70.0314 65.689 70.3865C65.6902 70.8811 65.6884 71.3756 65.6857 71.8701C65.6867 72.0158 65.6876 72.1614 65.6886 72.3114C65.6797 73.2287 65.5659 73.9265 64.922 74.6324C64.2433 75.1609 63.8024 75.3324 62.9532 75.3335C62.7874 75.3341 62.6216 75.3347 62.4507 75.3353C62.2679 75.3352 62.0851 75.3351 61.8968 75.3349C61.6062 75.3356 61.6062 75.3356 61.3098 75.3363C60.771 75.3375 60.2324 75.3379 59.6936 75.338C59.113 75.3383 58.5324 75.3395 57.9518 75.3405C56.6818 75.3426 55.4118 75.3436 54.1418 75.3443C53.349 75.3447 52.5563 75.3454 51.7635 75.3461C49.5691 75.348 47.3748 75.3496 45.1805 75.3501C44.9698 75.3502 44.9698 75.3502 44.7548 75.3502C44.5436 75.3503 44.5436 75.3503 44.3281 75.3503C44.0427 75.3504 43.7574 75.3504 43.472 75.3505C43.3305 75.3506 43.189 75.3506 43.0431 75.3506C40.7492 75.3512 38.4552 75.354 36.1613 75.3576C33.807 75.3613 31.4526 75.3633 29.0983 75.3634C27.7761 75.3636 26.4539 75.3645 25.1317 75.3673C24.0059 75.3697 22.8801 75.3705 21.7543 75.3692C21.1798 75.3686 20.6054 75.3688 20.0309 75.371C19.4082 75.3733 18.7856 75.372 18.163 75.3704C17.9812 75.3717 17.7994 75.3729 17.6121 75.3742C16.6034 75.368 15.8356 75.3213 15.0556 74.6099C14.572 73.9887 14.3563 73.5598 14.3532 72.7777C14.3518 72.5758 14.3518 72.5758 14.3505 72.3697C14.3503 72.2224 14.3501 72.0751 14.3499 71.9234C14.3491 71.7678 14.3484 71.6122 14.3476 71.4519C14.3453 70.9354 14.3442 70.4188 14.3434 69.9022C14.3425 69.5418 14.3416 69.1814 14.3407 68.8209C14.339 68.0632 14.3381 67.3054 14.3376 66.5476C14.3367 65.5836 14.333 64.6197 14.3285 63.6558C14.3256 62.9097 14.3248 62.1637 14.3245 61.4177C14.3241 61.0628 14.3228 60.708 14.3208 60.3531C14.2864 54.0134 16.2177 48.3938 20.7089 43.8201C23.7584 40.8092 29.8248 36.7693 34.167 38.6919ZM30.6056 41.1626C30.4662 41.2052 30.3268 41.2479 30.1831 41.2918C25.3603 42.8215 21.3643 46.1622 19.0199 50.6652C15.6384 57.452 17.0313 65.2949 17.0313 72.6567C32.1907 72.6567 47.3501 72.6567 62.9688 72.6567C63.7811 57.7271 63.7811 57.7271 57.4513 45.811C54.9079 43.3841 51.971 41.8503 48.5938 40.938C48.4609 40.8953 48.328 40.8526 48.191 40.8086C47.619 40.768 47.1573 40.9936 46.6407 41.2114C41.9613 43.0792 37.1386 42.5722 32.5001 40.938C31.8044 40.7061 31.2916 40.9527 30.6056 41.1626Z" fill="black"/>
<path d="M47.9689 7.18713C48.5109 7.63533 49.0233 8.10734 49.5314 8.59338C49.6408 8.69107 49.7501 8.78876 49.8628 8.8894C51.9296 10.8031 53.2364 13.8143 53.483 16.6072C53.5014 17.1341 53.5067 17.6591 53.5054 18.1863C53.5062 18.3786 53.507 18.571 53.5079 18.7692C53.5089 19.1732 53.5087 19.5772 53.5073 19.9812C53.506 20.5922 53.5105 21.2029 53.5155 21.8139C53.5228 24.3369 53.4555 26.6853 52.2267 28.9547C52.1728 29.0577 52.1189 29.1606 52.0633 29.2667C50.306 32.5401 47.4369 34.9942 43.8698 36.0928C40.0723 37.0799 36.3301 36.5813 32.9091 34.6328C29.6338 32.565 27.5151 29.4703 26.6644 25.7166C26.5036 24.8307 26.4926 23.9613 26.4949 23.063C26.4941 22.8706 26.4933 22.6783 26.4924 22.4801C26.4914 22.0761 26.4916 21.6721 26.4929 21.2681C26.4943 20.6571 26.4898 20.0463 26.4848 19.4354C26.4775 16.898 26.5464 14.5517 27.7931 12.275C27.8482 12.1709 27.9032 12.0668 27.96 11.9595C28.1159 11.6688 28.2759 11.3809 28.4376 11.0934C28.5077 10.9639 28.5778 10.8344 28.65 10.7009C30.3742 7.82209 33.4943 5.80695 36.6988 4.99475C40.5725 4.11527 44.76 4.78288 47.9689 7.18713ZM31.5541 11.3107C28.633 15.2289 28.5805 20.3846 29.258 25.0704C29.8573 27.9048 31.5127 30.4079 33.8948 32.0492C36.6148 33.7151 39.5565 34.3717 42.7113 33.6202C46.0095 32.5609 48.338 30.5587 49.9293 27.5045C51.5591 24.0916 51.5013 18.6774 50.4689 15.0802C49.4012 12.0878 47.5223 9.90803 44.7365 8.39807C40.1332 6.22413 34.8566 7.4332 31.5541 11.3107Z" fill="black"/>
</svg>
