<svg width="65" height="65" viewBox="0 0 65 65" fill="none" xmlns="http://www.w3.org/2000/svg">
<path d="M53.8192 26.9106C53.8192 40.3466 38.9139 54.3397 33.9087 58.6614C33.4424 59.012 32.8748 59.2016 32.2915 59.2016C31.7081 59.2016 31.1405 59.012 30.6742 58.6614C25.669 54.3397 10.7637 40.3466 10.7637 26.9106C10.7637 21.2011 13.0318 15.7254 17.069 11.6882C21.1063 7.65091 26.5819 5.38281 32.2915 5.38281C38.001 5.38281 43.4766 7.65091 47.5139 11.6882C51.5511 15.7254 53.8192 21.2011 53.8192 26.9106Z" stroke="#1A2A40" stroke-width="1.66667" stroke-linecap="round" stroke-linejoin="round"/>
<path d="M32.2917 34.9818C36.7502 34.9818 40.3646 31.3674 40.3646 26.9089C40.3646 22.4503 36.7502 18.8359 32.2917 18.8359C27.8331 18.8359 24.2188 22.4503 24.2188 26.9089C24.2188 31.3674 27.8331 34.9818 32.2917 34.9818Z" stroke="#1A2A40" stroke-width="1.66667" stroke-linecap="round" stroke-linejoin="round"/>
</svg>
