<svg width="41" height="41" viewBox="0 0 41 41" fill="none" xmlns="http://www.w3.org/2000/svg">
<g clip-path="url(#clip0_12356_8939)">
<path fill-rule="evenodd" clip-rule="evenodd" d="M35.875 0C38.7055 0 41 2.29454 41 5.125C41 13.0021 41 27.9979 41 35.875C41 38.7055 38.7055 41 35.875 41C27.9979 41 13.0021 41 5.125 41C2.29454 41 0 38.7055 0 35.875C0 27.9979 0 13.0021 0 5.125C0 2.29454 2.29454 0 5.125 0H35.875Z" fill="#F5F1EB"/>
<path fill-rule="evenodd" clip-rule="evenodd" d="M20.5004 2.96558C15.6442 5.86297 12.2879 11.0132 11.873 16.9736C15.3829 19.9822 18.1772 23.8018 19.9655 28.1423C20.1349 27.7312 20.3132 27.3249 20.5004 26.9235C20.6876 27.3249 20.8662 27.7312 21.0356 28.1423C22.8235 23.8018 25.6179 19.9822 29.128 16.9736C28.7131 11.0131 25.3569 5.86294 20.5004 2.96558Z" fill="#F06CA6"/>
<path d="M20.5 4.78996C18.5921 6.0829 16.9744 7.77036 15.7647 9.73431C14.5576 11.694 13.7565 13.9341 13.4792 16.336C15.0966 17.796 16.5575 19.4206 17.8332 21.1815C18.5972 22.2359 19.2975 23.343 19.9278 24.497L20.5003 23.2684L21.0723 24.4961C21.7025 23.3427 22.4023 22.2361 23.166 21.1818C24.442 19.4209 25.9029 17.796 27.5203 16.336C27.2429 13.9338 26.4421 11.6942 25.235 9.73459C24.0254 7.77036 22.4077 6.0829 20.5 4.78996ZM13.1461 8.11777C14.7793 5.46616 17.0355 3.24005 19.7096 1.64419L20.5 1.17273L21.2902 1.64419C23.9642 3.24005 26.2205 5.46616 27.8534 8.11777C29.4435 10.6993 30.4438 13.68 30.6658 16.8709L30.7189 17.6381L30.1286 18.144C28.4615 19.573 26.961 21.2008 25.6637 22.9916C24.3783 24.766 23.2981 26.6898 22.4588 28.7272L21.037 32.1797L20.5 30.8798L19.9634 32.1805L18.5407 28.7272C17.7014 26.6898 16.6212 24.766 15.3357 22.9913C14.0385 21.2008 12.5383 19.573 10.8709 18.144L10.2803 17.6381L10.334 16.8709C10.5559 13.68 11.556 10.6993 13.1461 8.11777Z" fill="#1A2A40"/>
<path fill-rule="evenodd" clip-rule="evenodd" d="M29.587 8.4824C25.6092 11.6026 22.4539 15.7238 20.5 20.4665C21.9247 23.9247 22.7103 27.7133 22.7103 31.6857C22.7103 33.9271 22.4602 36.1101 21.9862 38.2081C29.457 37.4567 35.3394 31.1037 35.3394 23.4434V4.95068C33.2821 5.90826 31.3534 7.09667 29.587 8.48235L29.587 8.4824Z" fill="#F38EBA"/>
<path d="M30.54 9.69502C28.6343 11.1898 26.9348 12.9146 25.4874 14.8237C24.1715 16.5591 23.0525 18.4576 22.1647 20.4844C22.8119 22.1532 23.3178 23.8834 23.6678 25.6602C24.0526 27.6138 24.2544 29.6289 24.2544 31.6859C24.2544 32.8375 24.1887 33.9918 24.0609 35.1432C24.0181 35.5288 23.9679 35.9132 23.9105 36.2968C26.4274 35.6247 28.657 34.2278 30.3596 32.3457C32.4916 29.9881 33.7946 26.8627 33.7946 23.4436V7.49098C33.5824 7.61357 33.3731 7.73791 33.166 7.8651C32.2644 8.41839 31.3876 9.03027 30.54 9.69497V9.69502ZM23.0378 12.9654C24.6604 10.8254 26.5428 8.90973 28.6334 7.26965C29.5583 6.54408 30.5362 5.86416 31.5616 5.23449C32.5823 4.60769 33.626 4.04492 34.6872 3.55135L36.8832 2.52917V23.4436C36.8832 27.6463 35.2741 31.4964 32.64 34.409C29.9841 37.3458 26.2821 39.3238 22.1366 39.7407L20.4836 37.8704C20.7076 36.8783 20.8796 35.8556 20.9962 34.8053C21.1081 33.7977 21.1659 32.7566 21.1659 31.6859C21.1659 29.8216 20.9847 28.0044 20.6393 26.2514C20.2827 24.44 19.7552 22.7005 19.0761 21.0521L18.835 20.467L19.0761 19.8815C20.0975 17.4022 21.4346 15.0799 23.0379 12.9655L23.0378 12.9654Z" fill="#1A2A40"/>
<path fill-rule="evenodd" clip-rule="evenodd" d="M33.795 11.7855C33.6652 11.8653 33.5363 11.9463 33.408 12.0284C33.2707 12.116 33.134 12.205 32.9982 12.2949C32.5388 12.5998 32.088 12.9185 31.647 13.2505C31.1856 13.5976 30.7345 13.9591 30.2949 14.3347C29.6047 14.9238 28.9417 15.5475 28.3088 16.2033C26.7876 17.7805 25.4491 19.5343 24.3327 21.4345C23.7963 22.3475 23.3088 23.2996 22.8738 24.2877C22.5766 24.9636 22.3039 25.6561 22.0575 26.3642C21.8835 26.8643 21.723 27.372 21.5763 27.8868C21.2286 29.1094 20.9595 30.3728 20.7761 31.6714C20.7674 31.732 20.7591 31.792 20.7511 31.8526C20.6161 32.8504 20.5357 33.8283 20.5073 34.7839C20.4875 35.4426 20.4907 36.0938 20.5162 36.7367L20.5217 36.7375H20.4998L20.2854 36.7367C20.1705 36.1038 20.0763 35.4595 20.0034 34.8043C19.8917 33.7968 19.834 32.7559 19.834 31.6849C19.834 29.8206 20.0152 28.0034 20.3606 26.2505C20.7172 24.4393 21.2446 22.6996 21.9237 21.0509C22.7633 19.0131 23.8431 17.0896 25.1289 15.3149C26.4264 13.5241 27.9267 11.8967 29.5937 10.4676C30.5559 9.64298 31.5778 8.88066 32.6528 8.1881C33.0261 7.94749 33.4068 7.71521 33.795 7.49097V11.7855Z" fill="#F8BBD6"/>
<path fill-rule="evenodd" clip-rule="evenodd" d="M20.4995 20.4667C18.7116 16.1264 15.9172 12.3068 12.4074 9.29825C10.3788 7.5594 8.11079 6.09133 5.66016 4.95056V23.4436C5.66016 31.1039 11.5428 37.4569 19.0137 38.2083C19.5026 38.2577 19.9982 38.2827 20.4995 38.2827C21.0009 38.2827 21.4967 38.2577 21.9857 38.2083C22.4598 36.1103 22.7099 33.9272 22.7099 31.6859C22.7099 27.7135 21.9243 23.9249 20.4995 20.4667L20.4995 20.4667Z" fill="#F38EBA"/>
<path fill-rule="evenodd" clip-rule="evenodd" d="M7.20508 11.7864C7.33486 11.8662 7.46378 11.9472 7.59213 12.0293C7.72938 12.1169 7.86605 12.2056 8.00185 12.2958C8.46126 12.6007 8.91176 12.9194 9.35308 13.2513C9.81449 13.5982 10.2653 13.9597 10.7049 14.3355C11.3954 14.9247 12.0581 15.5484 12.6909 16.2039C14.2124 17.7813 15.5507 19.5348 16.6674 21.435C17.2034 22.3484 17.6916 23.3005 18.126 24.2885C18.4235 24.9641 18.6959 25.657 18.9426 26.365C19.1163 26.8649 19.2771 27.3729 19.4235 27.8877C19.7715 29.1105 20.0406 30.3736 20.224 31.6723C20.2326 31.7329 20.241 31.7932 20.249 31.8535C20.384 32.8513 20.4641 33.8292 20.4928 34.7848C20.5123 35.4434 20.5091 36.0947 20.4839 36.7375L20.4781 36.7381H20.5L20.7147 36.7375C20.8296 36.1047 20.9238 35.4604 20.9964 34.8052C21.1084 33.7976 21.1661 32.7565 21.1661 31.6858C21.1661 29.8215 20.9849 28.0042 20.6395 26.2513C20.2829 24.4398 19.7554 22.7007 19.0764 21.0517C18.2368 19.014 17.1569 17.0902 15.8712 15.3158C14.5734 13.525 13.0734 11.8975 11.4063 10.4685C10.4442 9.64385 9.42199 8.88153 8.34728 8.18897C7.974 7.94836 7.59328 7.71578 7.20508 7.49182V11.7864Z" fill="#F8BBD6"/>
<path d="M19.0764 21.052C18.2368 19.014 17.1569 17.0902 15.8712 15.3158C14.5734 13.525 13.0734 11.8975 11.4063 10.4685C10.4442 9.64385 9.42199 8.88124 8.34728 8.18868C7.97372 7.94836 7.59328 7.71607 7.20508 7.49182V23.4435C7.20508 26.8626 8.50777 29.988 10.64 32.3456C12.7978 34.7313 15.8026 36.3375 19.1648 36.6758C19.3825 36.6979 19.603 36.7145 19.8258 36.7254C19.9932 36.7338 20.2186 36.7384 20.5002 36.7384L20.7144 36.7372C20.8296 36.1047 20.9238 35.4601 20.9964 34.8051C21.1084 33.7976 21.1661 32.7565 21.1661 31.6858C21.1661 29.8215 20.9849 28.0042 20.6395 26.2513C20.2829 24.4398 19.7554 22.7004 19.0764 21.052V21.052ZM18.3686 13.506C19.7867 15.4628 20.9843 17.601 21.9241 19.8814C22.6873 21.7348 23.2759 23.6683 23.6681 25.6601C24.0529 27.6138 24.2547 29.6288 24.2547 31.6858C24.2547 32.8375 24.189 33.9917 24.0612 35.1431C23.9343 36.2876 23.7419 37.4235 23.4884 38.5461L23.244 39.6283L22.1369 39.7406C21.8653 39.7682 21.5922 39.7888 21.3191 39.8023C20.9924 39.819 20.7193 39.8273 20.5002 39.8273C20.2806 39.8273 20.0078 39.819 19.6808 39.8023C19.408 39.7888 19.135 39.7682 18.863 39.7406C14.7178 39.3237 11.0158 37.3457 8.35967 34.4089C5.72555 31.4963 4.11621 27.6462 4.11621 23.4435V2.52844L6.31216 3.55061C7.585 4.14325 8.82137 4.82748 10.0124 5.59468C11.2005 6.36045 12.3355 7.20719 13.4091 8.12772C15.2688 9.72185 16.9353 11.5276 18.3687 13.5059L18.3686 13.506Z" fill="#1A2A40"/>
<path fill-rule="evenodd" clip-rule="evenodd" d="M16.2542 10.898C17.3565 9.1712 18.8042 7.68474 20.4997 6.53537C22.1961 7.68503 23.6443 9.17235 24.7469 10.9003C24.9835 10.6381 25.2241 10.38 25.4687 10.1265C25.3929 9.99468 25.3148 9.86405 25.235 9.73455C24.0254 7.77031 22.4074 6.08257 20.4997 4.78992C18.592 6.08257 16.9744 7.77031 15.7647 9.73426C15.6851 9.86346 15.6073 9.99382 15.5312 10.1253C15.7767 10.3789 16.0176 10.6364 16.2542 10.898Z" fill="#F38EBA"/>
</g>
<defs>
<clipPath id="clip0_12356_8939">
<rect width="41" height="41" fill="white"/>
</clipPath>
</defs>
</svg>
